<svg width="44" height="32" viewBox="0 0 44 32" fill="none" xmlns="http://www.w3.org/2000/svg">
<rect width="44" height="32" fill="#BF0816"/>
<path d="M11 0H33V32H11V0Z" fill="white"/>
<path d="M21.9997 6.85706L20.3529 9.61482C20.1661 9.91455 19.8313 9.88675 19.4965 9.71934L18.3042 9.16504L19.1928 13.4009C19.3797 14.1748 18.7802 14.1748 18.4843 13.8402L16.4036 11.7488L16.0658 12.8108C16.0269 12.9503 15.8556 13.0968 15.5986 13.0619L12.9676 12.5652L13.6587 14.8211C13.8066 15.323 13.922 15.5308 13.5093 15.6632L12.5715 16.059L17.1007 19.3621C17.28 19.487 17.3705 19.7118 17.3067 19.9153L16.9103 21.0833C18.4698 20.9219 19.8671 20.679 21.4273 20.5295C21.565 20.5163 21.7956 20.7204 21.7947 20.8637L21.5881 25.1428H22.3463L22.2269 20.8729C22.226 20.7296 22.4352 20.5163 22.5729 20.5295C24.1331 20.6791 25.5304 20.9219 27.0899 21.0833L26.6935 19.9153C26.6297 19.7118 26.7203 19.487 26.8995 19.3621L31.4287 16.059L30.4909 15.6632C30.0782 15.5308 30.1936 15.323 30.3415 14.8211L31.0326 12.5652L28.4016 13.0619C28.1446 13.0968 27.9733 12.9503 27.9344 12.8108L27.5966 11.7488L25.5159 13.8402C25.22 14.1748 24.6205 14.1748 24.8074 13.4009L25.696 9.16504L24.5037 9.71934C24.1689 9.88675 23.8341 9.91455 23.6473 9.61482" fill="#BF0816"/>
</svg>
