<svg xmlns:dc="http://purl.org/dc/elements/1.1/" xmlns:cc="http://creativecommons.org/ns#" xmlns:rdf="http://www.w3.org/1999/02/22-rdf-syntax-ns#" xmlns:svg="http://www.w3.org/2000/svg" xmlns="http://www.w3.org/2000/svg" xmlns:sodipodi="http://sodipodi.sourceforge.net/DTD/sodipodi-0.dtd" xmlns:inkscape="http://www.inkscape.org/namespaces/inkscape" version="1.1" id="Layer_1" x="0px" y="0px" xml:space="preserve" sodipodi:docname="bodog-logo.svg" inkscape:export-filename="G:\Users\suitedoalex\sites\bodog-logo-0.png" inkscape:export-xdpi="561.73712" inkscape:export-ydpi="561.73712" inkscape:version="0.92.4 (5da689c313, 2019-01-14)" viewBox="108.88 289.41 482.25 121.18"><metadata id="metadata23"><rdf:RDF><cc:Work rdf:about=""><dc:format>image/svg+xml</dc:format><dc:type rdf:resource="http://purl.org/dc/dcmitype/StillImage"/><dc:title/></cc:Work></rdf:RDF></metadata><defs id="defs21"/><sodipodi:namedview pagecolor="#ffffff" bordercolor="#666666" borderopacity="1" objecttolerance="10" gridtolerance="10" guidetolerance="10" inkscape:pageopacity="0" inkscape:pageshadow="2" inkscape:window-width="1600" inkscape:window-height="837" id="namedview19" showgrid="false" inkscape:zoom="0.61172161" inkscape:cx="22.994735" inkscape:cy="306.30922" inkscape:window-x="-8" inkscape:window-y="-8" inkscape:window-maximized="1" inkscape:current-layer="Layer_1"/>
<style type="text/css" id="style2">
	.st0{fill:#C42126;}
</style>
<g id="g16" transform="matrix(1.7664671,0,0,1.7664671,108.87724,289.41018)" inkscape:export-filename="G:\Users\suitedoalex\sites\bodog-logo-5.png" inkscape:export-xdpi="429.98846" inkscape:export-ydpi="429.98846">
	<g id="g14">
		<path class="st0" d="M 20.5,54.3 C 9.3,54.3 0,46.6 0,36.7 V 3 C 0,1.2 1.7,0 3.4,0 c 4.8,0 9.2,3.5 9.2,7.9 v 12.7 c 3.1,-1.8 6.9,-2.8 9.7,-2.8 h 12.6 c 11.1,0 20.4,7.8 20.4,17.7 v 1.1 c 0,9.9 -9.3,17.7 -20.4,17.7 z M 34.1,28 H 23.2 c -6.7,0 -10.5,3.7 -10.5,8.2 v 0.5 c 0,4.1 3.6,7.6 8.6,7.6 h 12.8 c 5,0 8.6,-3.4 8.6,-7.6 V 35.6 C 42.7,31.4 39.1,28 34.1,28 Z" id="path4" inkscape:connector-curvature="0" style="fill:#c42126"/>
		<path class="st0" d="M 74.8,54.3 C 63.6,54.3 54.3,46.8 54.3,37.1 V 36 c 0,-9.6 9.3,-17.2 20.5,-17.2 h 14.4 c 11.1,0 20.4,7.5 20.4,17.2 v 1.1 c 0,9.6 -9.3,17.2 -20.4,17.2 z M 88.4,28.8 H 75.5 c -5.1,0 -8.6,3.3 -8.6,7.3 v 1.1 c 0,4 3.6,7.3 8.6,7.3 h 12.8 c 5,0 8.6,-3.3 8.6,-7.3 v -1.1 c 0.1,-4 -3.6,-7.3 -8.5,-7.3 z" id="path6" inkscape:connector-curvature="0" style="fill:#c42126"/>
		<path class="st0" d="m 129,54.3 c -11.2,0 -20.5,-7.8 -20.5,-17.7 v -1 c 0,-9.9 9.3,-17.7 20.5,-17.7 h 12.6 c 2.8,0 6.6,1 9.6,2.8 V 7.9 c 0,-4.4 4.4,-7.9 9.3,-7.9 1.7,0 3.3,1.2 3.3,3 v 33.7 c 0,9.9 -9.3,17.7 -20.4,17.7 H 129 Z M 140.6,28 h -10.8 c -5.1,0 -8.6,3.4 -8.6,7.6 v 1.1 c 0,4.1 3.6,7.6 8.6,7.6 h 12.8 c 5,0 8.6,-3.4 8.6,-7.6 v -0.5 c 0,-4.5 -3.8,-8.2 -10.6,-8.2 z" id="path8" inkscape:connector-curvature="0" style="fill:#c42126"/>
		<path class="st0" d="m 184,54.3 c -11.2,0 -20.5,-7.5 -20.5,-17.2 V 36 c 0,-9.6 9.3,-17.2 20.5,-17.2 h 14.4 c 11.1,0 20.4,7.5 20.4,17.2 v 1.1 c 0,9.6 -9.3,17.2 -20.4,17.2 z m 13.6,-25.5 h -12.8 c -5.1,0 -8.6,3.3 -8.6,7.3 v 1.1 c 0,4 3.6,7.3 8.6,7.3 h 12.8 c 5,0 8.6,-3.3 8.6,-7.3 v -1.1 c 0,-4 -3.6,-7.3 -8.6,-7.3 z" id="path10" inkscape:connector-curvature="0" style="fill:#c42126"/>
		<path class="st0" d="m 250.8,55.2 h -12.6 c -11.2,0 -20.5,-7.8 -20.5,-17.6 v -1.1 c 0,-9.8 9.3,-17.6 20.5,-17.6 h 14.4 c 11.1,0 20.4,7.8 20.4,17.6 V 51 c 0,9.8 -9.3,17.6 -20.4,17.6 h -17.7 c -4.1,0 -8.6,-3.5 -8.6,-7.1 0,-1.8 1.6,-3 3.3,-3 h 22.1 c 4.3,0 7.6,-2.6 8.4,-6 -2.9,1.7 -6.6,2.7 -9.3,2.7 z m 1,-26.2 H 239 c -5.1,0 -8.6,3.4 -8.6,7.5 v 1.1 c 0,4.1 3.6,7.5 8.6,7.5 h 10.8 c 6.8,0 10.6,-3.7 10.6,-8.1 v -0.5 c 0,-4.1 -3.6,-7.5 -8.6,-7.5 z" id="path12" inkscape:connector-curvature="0" style="fill:#c42126"/>
	</g>
</g>
</svg>