<svg width="142.69" height="101.55" xmlns="http://www.w3.org/2000/svg">
 <defs>
  <linearGradient y2="1.28175" x2="0.8515" y1="-0.10629" x1="0.18471" id="New_Gradient_Swatch_4">
   <stop stop-color="#12562b" offset="0.23"/>
   <stop stop-color="#2db34a" offset="0.78"/>
   <stop stop-color="#33b449" offset="0.78"/>
   <stop stop-color="#55bb45" offset="0.82"/>
   <stop stop-color="#70c142" offset="0.86"/>
   <stop stop-color="#83c540" offset="0.9"/>
   <stop stop-color="#8ec73e" offset="0.94"/>
   <stop stop-color="#92c83e" offset="0.99"/>
  </linearGradient>
 </defs>
 <title>Asset 1</title>
 <g>
  <title>Layer 1</title>
  <g stroke="null" data-name="Layer 2" id="Layer_2">
   <g stroke="null" data-name="Layer 2" id="Layer_2-2">
    <path stroke="null" id="svg_1" fill="url(#New_Gradient_Swatch_4)" d="m25.90439,43.40585a32.36311,32.36311 0 0 0 -2.85852,-1.96234q-1.04297,-0.60261 -3.09029,-1.6224c-1.36746,-0.67986 -2.17093,-1.0816 -2.41816,-1.22067s-0.56398,-0.28585 -0.94254,-0.44809a3.47658,3.47658 0 0 1 -0.77257,-0.40174l-0.61033,-0.44809a1.14341,1.14341 0 0 1 -0.40174,-1.01207c0,-1.30565 0.87301,-1.95461 2.62675,-1.95461q2.36408,0 9.47175,1.66103a1.41381,1.41381 0 0 0 1.73056,-1.22067l1.23612,-11.41864a1.40608,1.40608 0 0 0 -1.12023,-1.54515a69.8252,69.8252 0 0 0 -13.50459,-1.36746q-7.17721,0 -11.20232,4.46548t-4.04829,12.48479q0,8.04249 5.40802,12.54659a18.68855,18.68855 0 0 0 3.02849,2.14775q1.27475,0.69532 3.15983,1.6224c1.25157,0.62578 2.20956,1.12796 2.85852,1.54515a8.1043,8.1043 0 0 1 1.48334,1.0507a1.75374,1.75374 0 0 1 0.50217,1.30565q0,1.78464 -2.08595,1.78464q-2.8508,0 -10.48382,-2.25591a1.42154,1.42154 0 0 0 -1.81555,1.25929l-0.77257,10.81603a1.41381,1.41381 0 0 0 1.03525,1.39063a49.36745,49.36745 0 0 0 13.47368,1.86963q7.43988,0 11.41091,-4.42685t3.94785,-12.46934q0,-8.02704 -5.24577,-12.17576zm98.37179,-22.17286l-10.09754,0a1.41381,1.41381 0 0 0 -1.38291,1.41381l0,19.12892l-0.40174,0l-7.61758,-19.64655a1.42926,1.42926 0 0 0 -1.3211,-0.90391l-11.81265,0a1.41381,1.41381 0 0 0 -1.41381,1.41381l0,2.11685l-5.85611,-2.88943a1.42154,1.42154 0 0 1 -0.77257,-1.06615l-1.08933,-7.50169a1.41381,1.41381 0 0 0 -2.41043,-0.77257l-5.29213,5.40802a1.42154,1.42154 0 0 1 -1.25157,0.40946l-7.47079,-1.27475a1.41381,1.41381 0 0 0 -1.49107,2.04732l3.53066,6.71366a1.41381,1.41381 0 0 1 0,1.31338l-2.27137,4.31869a13.46596,13.46596 0 0 0 -3.01304,-6.18059q-3.76243,-4.07146 -12.04442,-4.06374l-14.86432,0a1.41381,1.41381 0 0 0 -1.41381,1.41381l0,47.62144a1.41381,1.41381 0 0 0 1.41381,1.41381l11.30275,0a1.41381,1.41381 0 0 0 1.43699,-1.41381l0,-12.93288a1.41381,1.41381 0 0 1 1.41381,-1.41381l1.47562,0q7.81072,0 11.44181,-3.9324t3.6311,-13.28054c0,-1.00435 -0.04635,-1.94689 -0.10816,-2.85852l7.0536,-1.20521a1.39836,1.39836 0 0 1 1.25157,0.40174l4.78996,4.92129l-7.96523,0a1.41381,1.41381 0 0 0 -1.41381,1.41381l0,28.88653a1.41381,1.41381 0 0 0 1.41381,1.41381l11.37228,0a1.41381,1.41381 0 0 0 1.41381,-1.41381l0,-28.88653a1.41381,1.41381 0 0 0 -1.41381,-1.41381l-0.59488,0a1.77692,1.77692 0 0 0 0.07726,-0.2704l1.08933,-7.50942a1.40608,1.40608 0 0 1 0.77257,-1.05843l5.85611,-2.88943l0,42.028a1.41381,1.41381 0 0 0 1.41381,1.41381l9.95847,0a1.41381,1.41381 0 0 0 1.41381,-1.41381l0,-18.48769l0.5099,0l8.07339,19.03621a1.40608,1.40608 0 0 0 1.29792,0.86528l11.38001,0a1.41381,1.41381 0 0 0 1.41381,-1.41381l0,-47.60598a1.41381,1.41381 0 0 0 -1.41381,-1.41381zm-72.02703,22.89908a2.11685,2.11685 0 0 1 -2.12458,1.29792l-0.33221,0a1.40608,1.40608 0 0 1 -1.41381,-1.40608l0,-8.54466a1.41381,1.41381 0 0 1 1.41381,-1.41381a2.41043,2.41043 0 0 1 2.38725,1.29792a10.76195,10.76195 0 0 1 0.64124,4.38822a11.94399,11.94399 0 0 1 -0.5717,4.38049z" class="cls-1"/>
    <path stroke="null" id="svg_2" fill="#8d8d8d" d="m0.10816,87.79793a1.36746,1.36746 0 0 1 0.13134,-0.57943a2.41043,2.41043 0 0 1 0.30903,-0.55625a5.56253,5.56253 0 0 1 0.38629,-0.44809a2.05505,2.05505 0 0 1 0.33993,-0.29358c0.09271,-0.06181 0.15451,-0.08498 0.18542,-0.06181a6.08015,6.08015 0 0 0 1.80782,1.07388a5.5548,5.5548 0 0 0 2.14003,0.45582q1.85418,0 1.85418,-1.04297a0.64896,0.64896 0 0 0 -0.09271,-0.34766a0.77257,0.77257 0 0 0 -0.21632,-0.2395a1.3211,1.3211 0 0 0 -0.38629,-0.16997l-0.479,-0.10816l-0.58716,-0.11589l-0.63351,-0.12361a11.68131,11.68131 0 0 1 -1.3211,-0.33993a6.95316,6.95316 0 0 1 -1.22839,-0.52535a4.34959,4.34959 0 0 1 -1.01207,-0.77257a3.32979,3.32979 0 0 1 -0.66441,-1.0816a3.86287,3.86287 0 0 1 -0.25495,-1.43699a3.94013,3.94013 0 0 1 1.47562,-3.24481a6.59005,6.59005 0 0 1 4.21825,-1.16659a7.60985,7.60985 0 0 1 3.73153,0.72622a2.09367,2.09367 0 0 1 1.27475,1.8001a1.54515,1.54515 0 0 1 -0.14679,0.65669a2.31772,2.31772 0 0 1 -0.34766,0.58716a5.93337,5.93337 0 0 1 -0.41719,0.44809a2.54177,2.54177 0 0 1 -0.36311,0.3013c-0.10816,0.06181 -0.16224,0.08498 -0.18542,0.06181a5.54708,5.54708 0 0 0 -1.63013,-1.03525a4.9522,4.9522 0 0 0 -1.87735,-0.40174c-1.18976,0 -1.78464,0.33993 -1.78464,1.02752a0.60261,0.60261 0 0 0 0.10816,0.37084a0.77257,0.77257 0 0 0 0.37084,0.2395a3.53066,3.53066 0 0 0 0.50217,0.13906c0.16224,0 0.39401,0.07726 0.70304,0.12361l0.77257,0.14679a11.36456,11.36456 0 0 1 1.82327,0.55625a6.18059,6.18059 0 0 1 1.43699,0.77257a3.32207,3.32207 0 0 1 0.98889,1.18976a3.64655,3.64655 0 0 1 0.33993,1.5915a3.97103,3.97103 0 0 1 -1.54515,3.3607a7.20811,7.20811 0 0 1 -4.42685,1.20521a12.24529,12.24529 0 0 1 -2.46451,-0.22405a4.92902,4.92902 0 0 1 -1.65331,-0.62578a2.72718,2.72718 0 0 1 -0.89619,-0.86528a1.93143,1.93143 0 0 1 -0.28585,-1.02752z" class="cls-2"/>
    <path stroke="null" id="svg_3" fill="#8d8d8d" d="m22.40463,88.43917l0,-9.20135a2.41043,2.41043 0 0 1 0.5408,-1.69194a2.00097,2.00097 0 0 1 1.54515,-0.58716l3.49203,0a6.76774,6.76774 0 0 1 4.34959,1.22067a5.09899,5.09899 0 0 1 0.05408,7.15403a6.55142,6.55142 0 0 1 -4.25688,1.19749l-1.61468,0l0,1.92371a1.96234,1.96234 0 0 1 -0.46354,1.40608a1.76919,1.76919 0 0 1 -1.34428,0.48672l-0.60261,0a1.63013,1.63013 0 0 1 -1.27475,-0.48672a2.00869,2.00869 0 0 1 -0.42492,-1.42154zm4.07146,-4.92902l1.49107,0a2.04732,2.04732 0 0 0 1.39063,-0.44809a1.95461,1.95461 0 0 0 0,-2.59585a2.17866,2.17866 0 0 0 -1.46789,-0.44809l-1.43699,0l0.02318,3.49203z" class="cls-2"/>
    <path stroke="null" id="svg_4" fill="#8d8d8d" d="m44.20666,83.61058a7.16948,7.16948 0 0 1 0.89619,-3.53839a6.42009,6.42009 0 0 1 2.50314,-2.47224a7.84935,7.84935 0 0 1 7.23901,0a6.31193,6.31193 0 0 1 2.49541,2.45678a7.66393,7.66393 0 0 1 0,7.19266a6.31193,6.31193 0 0 1 -2.48769,2.41043a7.33945,7.33945 0 0 1 -3.60792,0.88073a7.72574,7.72574 0 0 1 -2.83535,-0.51762a6.28875,6.28875 0 0 1 -3.67745,-3.62337a7.37035,7.37035 0 0 1 -0.52535,-2.78899zm4.07146,0a3.48431,3.48431 0 0 0 0.77257,2.4027a2.75809,2.75809 0 0 0 2.15548,0.90391a2.70401,2.70401 0 0 0 2.12458,-0.90391a3.99421,3.99421 0 0 0 0,-4.80541a2.68856,2.68856 0 0 0 -2.12458,-0.91936a2.73491,2.73491 0 0 0 -2.15548,0.90391a3.46113,3.46113 0 0 0 -0.77257,2.41816z" class="cls-2"/>
    <path stroke="null" id="svg_5" fill="#8d8d8d" d="m69.33848,87.97562l0,-8.73781a2.41043,2.41043 0 0 1 0.5408,-1.69194a2.03187,2.03187 0 0 1 1.54515,-0.58716l4.11782,0a6.58233,6.58233 0 0 1 4.15645,1.12023a3.9324,3.9324 0 0 1 1.39063,3.26026a4.10237,4.10237 0 0 1 -0.77257,2.47996a3.86287,3.86287 0 0 1 -2.1323,1.41381l2.99759,3.70835a0.05408,0.05408 0 0 1 0,0.04635a0.44037,0.44037 0 0 1 -0.04635,0.16224a1.10478,1.10478 0 0 1 -0.24722,0.35538a3.02076,3.02076 0 0 1 -0.46354,0.39401a2.38725,2.38725 0 0 1 -0.70304,0.31676a3.23708,3.23708 0 0 1 -0.92709,0.13134a2.59585,2.59585 0 0 1 -1.49107,-0.39401a5.53935,5.53935 0 0 1 -1.27475,-1.34428l-1.88508,-2.50314l-0.77257,0l0,2.31772a1.96234,1.96234 0 0 1 -0.46354,1.41381a1.76147,1.76147 0 0 1 -1.352,0.48672l-0.479,0a1.48334,1.48334 0 0 1 -1.2902,-0.61806a2.98213,2.98213 0 0 1 -0.44809,-1.73056zm4.05601,-4.7745l1.72284,0a2.06277,2.06277 0 0 0 1.36746,-0.39401a1.39063,1.39063 0 0 0 0.47127,-1.13568c0,-1.04297 -0.62578,-1.54515 -1.88508,-1.54515l-1.67648,0l0,3.07484z" class="cls-2"/>
    <path stroke="null" id="svg_6" fill="#8d8d8d" d="m91.59632,78.72792l0,-0.06181c0,-1.13568 0.62578,-1.70739 1.89281,-1.70739l8.49831,0c1.26702,0 1.90826,0.5717 1.90826,1.70739l0,0.06181c0,1.20521 -0.64124,1.8001 -1.90826,1.8001l-2.15548,0l0,7.91115a1.91598,1.91598 0 0 1 -0.479,1.42154a1.831,1.831 0 0 1 -1.37518,0.48672l-0.5717,0c-1.13568,0 -1.70739,-0.63351 -1.70739,-1.90826l0,-7.91115l-2.21729,0a1.95461,1.95461 0 0 1 -1.40608,-0.45582a1.76919,1.76919 0 0 1 -0.479,-1.34428z" class="cls-2"/>
    <path stroke="null" id="svg_7" fill="#8d8d8d" d="m114.14002,87.79793a1.49107,1.49107 0 0 1 0.13134,-0.57943a2.42588,2.42588 0 0 1 0.31676,-0.55625a5.50072,5.50072 0 0 1 0.37856,-0.44809a2.42588,2.42588 0 0 1 0.33993,-0.29358c0.10043,-0.06181 0.16224,-0.08498 0.18542,-0.06181a6.08015,6.08015 0 0 0 1.80782,1.07388a5.57798,5.57798 0 0 0 2.1323,0.45582q1.85418,0 1.85418,-1.04297a0.64896,0.64896 0 0 0 -0.09271,-0.34766a0.77257,0.77257 0 0 0 -0.22405,-0.2395a1.22839,1.22839 0 0 0 -0.38629,-0.16997l-0.46354,-0.11589l-0.58716,-0.11589l-0.63351,-0.12361a11.68131,11.68131 0 0 1 -1.3211,-0.33993a6.86045,6.86045 0 0 1 -1.18976,-0.51762a4.19507,4.19507 0 0 1 -1.01207,-0.77257a3.22163,3.22163 0 0 1 -0.67214,-1.0816a3.86287,3.86287 0 0 1 -0.25495,-1.43699a3.94013,3.94013 0 0 1 1.47562,-3.24481a6.59005,6.59005 0 0 1 4.18735,-1.17431a7.66393,7.66393 0 0 1 3.73926,0.72622a2.1014,2.1014 0 0 1 1.30565,1.80782a1.54515,1.54515 0 0 1 -0.14679,0.65669a2.31772,2.31772 0 0 1 -0.34766,0.58716a5.93337,5.93337 0 0 1 -0.41719,0.44809a2.54177,2.54177 0 0 1 -0.36311,0.3013c-0.10043,0.06181 -0.16224,0.08498 -0.18542,0.06181a5.54708,5.54708 0 0 0 -1.63013,-1.03525a4.89039,4.89039 0 0 0 -1.87735,-0.40174c-1.18976,0 -1.78464,0.33993 -1.78464,1.02752a0.60261,0.60261 0 0 0 0.10816,0.37084a0.77257,0.77257 0 0 0 0.37084,0.2395a3.86287,3.86287 0 0 0 0.50217,0.13906c0.16224,0 0.39401,0.07726 0.70304,0.12361l0.77257,0.14679a11.71994,11.71994 0 0 1 1.831,0.55625a6.29647,6.29647 0 0 1 1.42926,0.77257a3.24481,3.24481 0 0 1 0.98889,1.18976a3.64655,3.64655 0 0 1 0.33993,1.5915a3.98648,3.98648 0 0 1 -1.54515,3.3607a7.24674,7.24674 0 0 1 -4.48093,1.16659a12.10623,12.10623 0 0 1 -2.45678,-0.22405a4.9831,4.9831 0 0 1 -1.66103,-0.62578a2.80444,2.80444 0 0 1 -0.88846,-0.86528a1.93143,1.93143 0 0 1 -0.27813,-0.98889z" class="cls-2"/>
   </g>
  </g>
 </g>
</svg>