<?xml version="1.0" encoding="UTF-8"?> <svg xmlns="http://www.w3.org/2000/svg" width="446.05" height="125.17" viewBox="0 0 446.05 125.17"><defs><style>.a{fill:#161747;}.b{fill:#f58721;}.c{fill:#f58821;}</style></defs><path class="a" d="M154.82,29.07c0,2.13,1.14,3.27,2.61,4.27a56.44,56.44,0,0,0,6.42,3.34c4.49,2.13,7.5,4.27,9.17,6.41A12.32,12.32,0,0,1,175.5,51c0,9.48-7.63,13.89-17.6,13.89A30.32,30.32,0,0,1,144.38,62V52.57a61.55,61.55,0,0,0,8.17,3,23.75,23.75,0,0,0,6.15.93c4,0,6.89-1.33,6.89-5.07,0-2.27-1.54-3.54-3.14-4.61a56.44,56.44,0,0,0-6.16-3.2,31.34,31.34,0,0,1-6.55-4,12.8,12.8,0,0,1-4.82-10.21c0-9,6.82-13.55,16.19-13.55a32.41,32.41,0,0,1,14.19,3.34L172,27.06a51.18,51.18,0,0,0-6.36-2.13,21,21,0,0,0-4.88-.67C157.36,24.26,154.82,25.86,154.82,29.07Z" transform="translate(0 -0.12)"></path><path class="a" d="M228,31.4c0,10.82-7.36,15.82-18.53,15.82h-4.35v17H195V16.52h15.25C221.2,16.52,228,20.92,228,31.4Zm-18.26-6.61h-4.62V39h3.35c5.62,0,9.3-2,9.3-7.21C217.79,26.73,215,24.79,209.76,24.79Z" transform="translate(0 -0.12)"></path><path class="a" d="M291.26,40.28c0,15.29-7.7,24.57-22.75,24.57s-22.75-9.35-22.75-24.63,7.7-24.44,22.82-24.44S291.26,24.93,291.26,40.28Zm-34.86,0c0,9.55,3.21,16.09,12.11,16.09,8.1,0,12.11-5.34,12.11-16.09s-4-16.09-12-16.09C259.68,24.19,256.4,30.74,256.4,40.28Z" transform="translate(0 -0.12)"></path><path class="a" d="M336.1,43.42c7.16,10.75,11.84,17.62,14,20.76H338.91L327.53,45.89h-5.42V64.18H312V16.52h13.92C337.5,16.52,345,20.05,345,30.8,345,37.28,341,41.28,336.1,43.42ZM325.19,24.79h-3.08V37.68h3.28c5.62,0,9.37-1.47,9.37-6.61S330.81,24.79,325.19,24.79Z" transform="translate(0 -0.12)"></path><path class="a" d="M375.38,64.18V24.93h-13V16.52h36.06v8.41h-13V64.18Z" transform="translate(0 -0.12)"></path><path class="a" d="M424.23,29.07c0,2.13,1.13,3.27,2.61,4.27a56.44,56.44,0,0,0,6.42,3.34c4.48,2.13,7.49,4.27,9.17,6.41A12.32,12.32,0,0,1,444.9,51c0,9.48-7.63,13.89-17.6,13.89A30.31,30.31,0,0,1,413.79,62V52.57a61.48,61.48,0,0,0,8.16,3,23.82,23.82,0,0,0,6.16.93c4,0,6.89-1.33,6.89-5.07,0-2.27-1.54-3.54-3.15-4.61a56,56,0,0,0-6.15-3.2,31.19,31.19,0,0,1-6.56-4,12.83,12.83,0,0,1-4.82-10.21c0-9,6.83-13.55,16.2-13.55a32.36,32.36,0,0,1,14.18,3.34l-3.28,7.87a50.57,50.57,0,0,0-6.35-2.13,21.06,21.06,0,0,0-4.89-.67C426.77,24.26,424.23,25.86,424.23,29.07Z" transform="translate(0 -0.12)"></path><path class="a" d="M145,109.24V82.67h3.06v26.57Z" transform="translate(0 -0.12)"></path><path class="a" d="M183.13,109.24h-3.49l-14.35-22.3h-.14c.19,2.62.28,5,.28,7.2v15.1h-2.82V82.67h3.45l14.32,22.21h.14c0-.33-.08-1.38-.16-3.16s-.11-3-.09-3.8V82.67h2.86Z" transform="translate(0 -0.12)"></path><path class="a" d="M205.75,109.24H202.7V85.41h-8.32V82.67h19.69v2.74h-8.32Z" transform="translate(0 -0.12)"></path><path class="a" d="M240,109.24H225.34V82.67H240v2.74H228.39V94h10.89V96.7H228.39v9.78H240Z" transform="translate(0 -0.12)"></path><path class="a" d="M256.17,98.19v11h-3.05V82.67h7.2q4.83,0,7.14,1.87a6.83,6.83,0,0,1,2.31,5.63q0,5.28-5.28,7.13l7.13,11.94H268l-6.36-11Zm0-2.65h4.19a7.2,7.2,0,0,0,4.74-1.3,4.86,4.86,0,0,0,1.51-3.9,4.44,4.44,0,0,0-1.54-3.8c-1-.78-2.66-1.16-4.93-1.16h-4Z" transform="translate(0 -0.12)"></path><path class="a" d="M299.69,109.24l-3.27-8.45H285.89l-3.23,8.45h-3.09L290,82.56h2.57l10.33,26.68ZM295.47,98l-3.06-8.24c-.39-1-.8-2.32-1.22-3.83a34.11,34.11,0,0,1-1.13,3.83L287,98Z" transform="translate(0 -0.12)"></path><path class="a" d="M325,85.05A8.53,8.53,0,0,0,318.19,88q-2.51,2.91-2.5,8,0,5.22,2.41,8.06a8.54,8.54,0,0,0,6.89,2.85,23.16,23.16,0,0,0,6.27-1v2.71a19.15,19.15,0,0,1-6.74,1q-5.79,0-8.95-3.56t-3.15-10.12a16,16,0,0,1,1.52-7.2A10.93,10.93,0,0,1,318.32,84a13.09,13.09,0,0,1,6.74-1.67,16.06,16.06,0,0,1,7.22,1.52L331,86.47A13.74,13.74,0,0,0,325,85.05Z" transform="translate(0 -0.12)"></path><path class="a" d="M352.39,109.24h-3.05V85.41H341V82.67h19.69v2.74h-8.32Z" transform="translate(0 -0.12)"></path><path class="a" d="M372,109.24V82.67H375v26.57Z" transform="translate(0 -0.12)"></path><path class="a" d="M412.36,95.92q0,6.38-3.19,10t-8.87,3.65q-5.81,0-8.95-3.59T388.2,95.88q0-6.48,3.16-10.06t9-3.57q5.66,0,8.84,3.63T412.36,95.92Zm-20.93,0q0,5.4,2.27,8.18a9.19,9.19,0,0,0,13.2,0q2.22-2.77,2.22-8.19t-2.22-8.14A7.9,7.9,0,0,0,400.34,85a8.07,8.07,0,0,0-6.64,2.79Q391.44,90.59,391.43,95.92Z" transform="translate(0 -0.12)"></path><path class="a" d="M446.05,109.24h-3.49l-14.35-22.3h-.15c.2,2.62.29,5,.29,7.2v15.1h-2.82V82.67H429l14.32,22.21h.14c0-.33-.08-1.38-.16-3.16s-.11-3-.09-3.8V82.67h2.86Z" transform="translate(0 -0.12)"></path><path class="b" d="M38,125.29c-5.33-11.09-1.76-23.74,9.16-31.52,12.6-9,25.33-17.79,38-26.67,1.09-.77,2.19-1.51,3.23-2.35,2.26-1.81,3-4.11,1.28-6.56s-4.12-3.33-6.9-1.46c-2.07,1.39-4.13,2.81-6.17,4.24C64.74,69.26,52.92,77.63,41,85.83a25.89,25.89,0,0,1-29.95.1c-2.21-1.58-3.15-2.48-.21-4.51,20.26-14,40.3-28.33,60.64-42.23a25.85,25.85,0,0,1,31.59,40.75C100.11,82.56,41.59,123.35,38,125.29Z" transform="translate(0 -0.12)"></path><path class="c" d="M76.57,8.69c-.4,10.11-3.89,17.25-11,22.27C45.51,45.15,25.29,59.14,5.21,73.32c-2.87,2-3.51.76-4.25-1.79-3-10.52,1.18-21.68,11.1-28.66,15.75-11.1,31.57-22.1,47.35-33.14,4.09-2.86,8.25-5.61,12.22-8.62,2.09-1.59,3.12-1.32,3.68,1.17S76.69,7.42,76.57,8.69Z" transform="translate(0 -0.12)"></path></svg> 